# xmcd
#
# Track frame offsets:
#	150
#	17925
#	32480
#	53091
#	68206
#	83472
#	100954
#	119239
#	135752
#	154135
#	174189
#	194928
#
# Disc length: 2805 seconds
#
# Revision: 0
# Processed by: cddbd v1.5.2PL0 Copyright (c) Steve Scherf et al.
# Submitted via: FairStars CD Ripper 1.90
#
DISCID=9c0af30c
DTITLE=Rose's Pawn Show - Gravity Well
DYEAR=2014
DGENRE=Country
TTITLE0=What Were you Waiting For
TTITLE1=Staring at the Door
TTITLE2=Go Get Done
TTITLE3=Stay All Night
TTITLE4=Country Blues
TTITLE5=Town Crier
TTITLE6=On the Brink
TTITLE7=Mountains
TTITLE8=Traveler
TTITLE9=After this Fall
TTITLE10=Gravity Well
TTITLE11=Don't Let Me Down
EXTD=
EXTT0=
EXTT1=
EXTT2=
EXTT3=
EXTT4=
EXTT5=
EXTT6=
EXTT7=
EXTT8=
EXTT9=
EXTT10=
EXTT11=
PLAYORDER=
